<svg xmlns="http://www.w3.org/2000/svg" version="1.1" xmlns:xlink="http://www.w3.org/1999/xlink" xmlns:svgjs="http://svgjs.dev/svgjs" width="1500" height="1500" viewBox="0 0 1500 1500"><rect width="1500" height="1500" fill="#ffffff"></rect><g transform="matrix(0.6666666666666666,0,0,0.6666666666666666,249.39393939393938,435.99032258064517)"><svg viewBox="0 0 396 248" data-background-color="#ffffff" preserveAspectRatio="xMidYMid meet" height="939" width="1500" xmlns="http://www.w3.org/2000/svg" xmlns:xlink="http://www.w3.org/1999/xlink"><g id="tight-bounds" transform="matrix(1,0,0,1,0.2400000000000091,0.4000000000000057)"><svg viewBox="0 0 395.52 247.2" height="247.2" width="395.52"><g><svg></svg></g><g><svg viewBox="0 0 395.52 247.2" height="247.2" width="395.52"><g transform="matrix(1,0,0,1,75.54432000000001,85.35333859877093)"><svg viewBox="0 0 244.43135999999996 76.49332280245812" height="76.49332280245812" width="244.43135999999996"><g><svg viewBox="0 0 244.43135999999996 76.49332280245812" height="76.49332280245812" width="244.43135999999996"><g><svg viewBox="0 0 244.43136 76.49332280245814" height="76.49332280245812" width="244.43135999999996"><g><svg viewBox="0 0 244.43136 76.49332280245814" height="76.49332280245814" width="244.43136"><g id="textblocktransform"><svg viewBox="0 0 244.43136 76.49332280245814" height="76.49332280245814" width="244.43136" id="textblock"><g><svg viewBox="0 0 244.43136 46.37717432057215" height="46.37717432057215" width="244.43136"><g transform="matrix(1,0,0,1,0,0)"><svg width="244.43136" viewBox="3.15 -35.2 237.67 45.1" height="46.37717432057215" data-palette-color="#aa9903"><path d="M26.9-32L30.7-32 27.75-9.95 26.7 0 22.95 0 24.35-9.65 24.9-14.55 16.4-14.7 8.6-14.55 7.95-9.95 6.95 0 3.15 0 4.6-9.65 7.15-32 10.95-32 9-17.85 17.1-17.7 25.3-17.85 26.9-32ZM46.2-7L46.8-6.95 48-5.4Q46.4-2.95 44.5-1.55 42.6-0.15 40.2 0.35L40.2 0.35 39.6 0.35Q36.4-0.05 34.92-2 33.45-3.95 33.45-7.8L33.45-7.8Q33.45-12.2 34.87-15.7 36.3-19.2 38.77-21.2 41.25-23.2 44.45-23.3L44.45-23.3 44.85-23.25Q47-23 48.12-21.85 49.25-20.7 49.25-18.8L49.25-18.8Q49.25-15.8 46.15-13.28 43.05-10.75 36.95-8.85L36.95-8.85Q36.95-5.7 37.77-4.25 38.6-2.8 40.35-2.8L40.35-2.8Q41.85-2.8 43.22-3.8 44.6-4.8 46.2-7L46.2-7ZM43.65-20.6Q41.1-20.6 39.32-18.13 37.55-15.65 37.1-11.5L37.1-11.5Q41.4-12.9 43.62-14.68 45.85-16.45 45.85-18.55L45.85-18.55Q45.85-20.6 43.65-20.6L43.65-20.6ZM66.75-23.1L67.94-23 67.19-18 66.89-17.85 66.44-17.9Q64.05-17.55 61.84-14.63 59.64-11.7 56.74-4.5L56.74-4.5 56.55-0.15 52.74 0.2 55.34-17.95 55.59-22.8 59.24-23.15 57.74-12.15 58.14-12.15Q59.95-15.8 62.02-18.48 64.09-21.15 66.75-23.1L66.75-23.1ZM75.54-23.15L73.04-5.45 72.84-0.15 69.04 0.2 71.64-17.95 71.84-22.8 75.54-23.15ZM74.69-32.95Q75.64-32.95 76.22-32.4 76.79-31.85 76.79-30.85L76.79-30.85Q76.79-29.8 76.19-29.15 75.59-28.5 74.59-28.5L74.59-28.5Q73.59-28.5 73.02-29.1 72.44-29.7 72.44-30.7L72.44-30.7Q72.44-31.7 73.04-32.33 73.64-32.95 74.69-32.95L74.69-32.95ZM87.34-20L84.99-5.55 84.89-4.75Q84.89-4 85.24-3.55 85.59-3.1 86.24-3.1L86.24-3.1Q88.04-3.1 90.59-7.1L90.59-7.1 91.04-7.1 92.09-5.75Q90.34-2.85 88.94-1.5 87.54-0.15 85.79 0.35L85.79 0.35Q83.79 0.35 82.67-0.75 81.54-1.85 81.54-3.85L81.54-3.85 81.64-5.05 83.79-17.95 84.04-20 80.69-20 80.44-20.25 80.69-22.5 84.39-22.5 85.09-28.05 88.54-29.65 88.84-29.35 87.74-22.5 93.84-22.5 94.14-22.1 93.89-20 87.34-20ZM112.74-23.3L113.19-23 110.74-5.45 110.49-0.15 106.69 0.2 108.14-10.05 107.64-10.05Q103.99-3.65 99.79 0.35L99.79 0.35 99.09 0.35Q95.29-1.8 95.29-7.5L95.29-7.5Q95.29-11.1 96.64-14.5 97.99-17.9 100.61-20.28 103.24-22.65 106.99-23.25L106.99-23.25 107.24-23.25 110.34-22.1 112.74-23.3ZM100.14-3.75Q100.74-3.75 102.21-5.4 103.69-7.05 105.56-10.2 107.44-13.35 109.24-17.6L109.24-17.6 109.29-17.9 109.34-19.1 106.24-20.2Q103.94-20.2 102.21-18.63 100.49-17.05 99.59-14.38 98.69-11.7 98.69-8.45L98.69-8.45Q98.69-5.95 99.14-4.85 99.59-3.75 100.14-3.75L100.14-3.75ZM134.74-23.3L135.24-23 132.78-5.65 132.39-1.9Q131.89 1.75 130.24 4.42 128.59 7.1 126.11 8.5 123.64 9.9 120.79 9.9L120.79 9.9Q117.59 9.9 115.49 8.08 113.39 6.25 112.79 2.9L112.79 2.9 112.94 2.5 119.99-1.9 120.04-2.35Q118.99-3.3 118.49-4.73 117.99-6.15 117.99-8.3L117.99-8.3Q117.99-11.9 119.26-15.1 120.54-18.3 123.04-20.48 125.54-22.65 129.03-23.2L129.03-23.2 129.28-23.2 132.39-22.1 134.74-23.3ZM128.34-20.2Q125.04-20.2 123.19-17.15 121.34-14.1 121.34-9.55L121.34-9.55Q121.34-7.1 121.81-5.9 122.29-4.7 122.74-4.7L122.74-4.7Q123.24-4.7 124.56-6.25 125.89-7.8 127.66-10.68 129.44-13.55 131.19-17.3L131.19-17.3 131.28-17.95 131.39-19.1 128.34-20.2ZM121.59 7.05Q124.44 7.05 126.41 5 128.39 2.95 128.94-0.9L128.94-0.9 130.24-10.5 129.74-10.5Q126.19-4.25 122.34-1.2L122.34-1.2 117.24 2.6Q116.79 3 116.79 3.45L116.79 3.45Q116.84 4.8 118.14 5.93 119.44 7.05 121.59 7.05L121.59 7.05ZM152.13-7L152.73-6.95 153.93-5.4Q152.33-2.95 150.43-1.55 148.53-0.15 146.13 0.35L146.13 0.35 145.53 0.35Q142.33-0.05 140.86-2 139.38-3.95 139.38-7.8L139.38-7.8Q139.38-12.2 140.81-15.7 142.23-19.2 144.71-21.2 147.18-23.2 150.38-23.3L150.38-23.3 150.78-23.25Q152.93-23 154.06-21.85 155.18-20.7 155.18-18.8L155.18-18.8Q155.18-15.8 152.08-13.28 148.98-10.75 142.88-8.85L142.88-8.85Q142.88-5.7 143.71-4.25 144.53-2.8 146.28-2.8L146.28-2.8Q147.78-2.8 149.16-3.8 150.53-4.8 152.13-7L152.13-7ZM149.58-20.6Q147.03-20.6 145.26-18.13 143.48-15.65 143.03-11.5L143.03-11.5Q147.33-12.9 149.56-14.68 151.78-16.45 151.78-18.55L151.78-18.55Q151.78-20.6 149.58-20.6L149.58-20.6ZM188.58-24.3Q188.58-20.45 186.55-17.5 184.53-14.55 180.88-12.95L180.88-12.95Q183.73-6.9 187.33-0.9L187.33-0.9 187.23-0.45Q185.43 0.25 183.68 0.45L183.68 0.45 183.28 0.1Q180.03-6.15 177.68-12L177.68-12 172.13-12 171.83-9.95 170.83 0 167.03 0 168.48-9.65 171.08-32 171.13-32 180.03-32.1Q184.08-32.1 186.33-30.08 188.58-28.05 188.58-24.3L188.58-24.3ZM174.38-28.85L172.53-15.2 178.28-15.05Q181.43-16 183.05-18.2 184.68-20.4 184.68-23.7L184.68-23.7Q184.68-28.7 179.08-29L179.08-29 174.38-28.85ZM199.03-23.15L196.53-5.45 196.33-0.15 192.53 0.2 195.13-17.95 195.33-22.8 199.03-23.15ZM198.18-32.95Q199.13-32.95 199.7-32.4 200.28-31.85 200.28-30.85L200.28-30.85Q200.28-29.8 199.68-29.15 199.08-28.5 198.08-28.5L198.08-28.5Q197.08-28.5 196.5-29.1 195.93-29.7 195.93-30.7L195.93-30.7Q195.93-31.7 196.53-32.33 197.13-32.95 198.18-32.95L198.18-32.95ZM218.77-34.85L222.57-35.2 218.42-5.45 218.17-0.15 214.37 0.2 215.82-10.05 215.32-10.05Q211.62-3.7 207.37 0.35L207.37 0.35 206.62 0.35Q202.82-1.8 202.82-7.5L202.82-7.5Q202.82-11.1 204.17-14.5 205.52-17.9 208.2-20.3 210.87-22.7 214.62-23.25L214.62-23.25 214.87-23.25 217.52-22.3 218.62-30 218.77-34.85ZM207.72-3.75Q208.32-3.75 209.77-5.38 211.22-7 213.12-10.13 215.02-13.25 216.87-17.45L216.87-17.45 217.07-19.05 213.92-20.2Q211.57-20.2 209.82-18.63 208.07-17.05 207.12-14.38 206.17-11.7 206.17-8.45L206.17-8.45Q206.17-5.95 206.65-4.85 207.12-3.75 207.72-3.75L207.72-3.75ZM237.77-7L238.37-6.95 239.57-5.4Q237.97-2.95 236.07-1.55 234.17-0.15 231.77 0.35L231.77 0.35 231.17 0.35Q227.97-0.05 226.5-2 225.02-3.95 225.02-7.8L225.02-7.8Q225.02-12.2 226.45-15.7 227.87-19.2 230.35-21.2 232.82-23.2 236.02-23.3L236.02-23.3 236.42-23.25Q238.57-23 239.7-21.85 240.82-20.7 240.82-18.8L240.82-18.8Q240.82-15.8 237.72-13.28 234.62-10.75 228.52-8.85L228.52-8.85Q228.52-5.7 229.35-4.25 230.17-2.8 231.92-2.8L231.92-2.8Q233.42-2.8 234.8-3.8 236.17-4.8 237.77-7L237.77-7ZM235.22-20.6Q232.67-20.6 230.9-18.13 229.12-15.65 228.67-11.5L228.67-11.5Q232.97-12.9 235.2-14.68 237.42-16.45 237.42-18.55L237.42-18.55Q237.42-20.6 235.22-20.6L235.22-20.6Z" opacity="1" transform="matrix(1,0,0,1,0,0)" fill="#000000" class="wordmark-text-0" data-fill-palette-color="primary" id="text-0"></path></svg></g></svg></g><g transform="matrix(1,0,0,1,0,57.32571212547555)"><svg viewBox="0 0 244.43136 19.167610676982598" height="19.167610676982598" width="244.43136"><g transform="matrix(1,0,0,1,0,0)"><svg width="244.43136" viewBox="0.45 -29.6 620.3199999999999 48.650000000000006" height="19.167610676982598" data-palette-color="#aa9903"><path d="M13.55-2.9L13.55-2.9Q13.7-2.9 13.7-2.6 13.7-2.3 13-1.6L13-1.6 12.5-0.85Q11.15 1.2 10.53 1.55 9.9 1.9 9.53 1.9 9.15 1.9 8.38 1.73 7.6 1.55 7.58 1.35 7.55 1.15 7.55 0.5 7.55-0.15 8.5-2.63 9.45-5.1 10.7-7.5L10.7-7.5Q13-12 15.3-16.2L15.3-16.2Q15.75-17.05 15.75-17.53 15.75-18 15.6-18.25L15.6-18.25Q15.9-19.7 18.07-21.95 20.25-24.2 22.05-24.2L22.05-24.2Q22.85-24.2 24-23.58 25.15-22.95 25-21.95L25-21.95Q24.65-22.2 24.35-22.2L24.35-22.2Q22.25-22.2 19.1-18.1L19.1-18.1Q13.85-11.3 10.2-2.5L10.2-2.5Q9.8-1.45 9.8-1.07 9.8-0.7 9.8-0.6L9.8-0.6Q10-0.1 10.63-0.3 11.25-0.5 11.8-1.2L11.8-1.2Q13.1-2.9 13.55-2.9ZM32.6-24.45L32.6-24.45Q33-25.1 33.8-25.95L33.8-25.95Q31.6-26 27.2-26.35L27.2-26.35Q21.75-26.8 19.75-26.8 17.75-26.8 14.2-26.45L14.2-26.45Q9.45-25.8 6.03-23.83 2.6-21.85 1.95-18.85L1.95-18.85Q1.85-18.55 1.85-18.13 1.85-17.7 2.13-17.1 2.4-16.5 2.8-16.15 3.2-15.8 4.03-15.3 4.85-14.8 5.13-14.58 5.4-14.35 5.23-14.2 5.05-14.05 4.88-14.05 4.7-14.05 4.5-14.1L4.5-14.1Q2.8-14.6 1.63-15.98 0.45-17.35 0.45-18.28 0.45-19.2 0.7-19.85L0.7-19.85Q0.7-20.4 0.75-20.65L0.75-20.65Q1.5-24.2 5.3-26.15L5.3-26.15Q9.85-28.5 16.5-28.5L16.5-28.5Q20.55-28.5 27.13-27.6 33.7-26.7 34.45-26.7L34.45-26.7Q35.8-28.2 36.5-28.25L36.5-28.25Q36.75-28.3 37.2-28.3 37.65-28.3 38-27.98 38.35-27.65 38.35-27.3 38.35-26.95 38.05-26.6 37.75-26.25 36.83-25.58 35.9-24.9 35.35-24.35L35.35-24.35Q32.75-21.75 32.75-19.8L32.75-19.8Q32.75-18.95 33.1-18.43 33.45-17.9 33.05-17.68 32.65-17.45 32.2-18L32.2-18Q31.7-18.4 31.7-20.55 31.7-22.7 32.6-24.45ZM23.6-13.85L23.6-13.85Q24.85-13.85 25.1-13.05L25.1-13.05Q25.2-12.6 24.97-12.18 24.75-11.75 24.65-11.5 24.55-11.25 24.5-11.1L24.5-11.1Q24.25-10.6 24-10.15L24-10.15Q21.15-4.45 21-2.9L21-2.9Q20.95-2.45 20.95-1.75 20.95-1.05 21.35-0.6L21.35-0.6Q22.05 0.2 23.35-0.5 24.65-1.2 26.97-3.3 29.3-5.4 30.75-7.4L30.75-7.4Q30.95-7.65 31.2-7.53 31.45-7.4 31.45-7.28 31.45-7.15 31.35-7L31.35-7Q30.6-5.65 28.65-3.55L28.65-3.55Q25.45-0.1 23.3 0.7L23.3 0.7Q22.05 1.15 21.2 1.15L21.2 1.15Q19.2 1.15 18.55-0.75L18.55-0.75Q18.45-1.1 18.45-1.6L18.45-1.6Q18.45-3.35 20.05-6.9L20.05-6.9Q19.8-6.35 18.1-4.4L18.1-4.4Q17.65-3.9 17.4-4.4L17.4-4.4Q17.35-4.5 17.35-4.67 17.35-4.85 17.55-5.1L17.55-5.1Q20-8.15 21.4-10.25L21.4-10.25Q21.3-10.5 21.5-10.9L21.5-10.9Q22.5-13.7 23.25-13.85L23.25-13.85Q23.4-13.85 23.6-13.85ZM27.55-20.5L27.55-20.5 27.15-18.9Q27.15-18.45 26.5-17.45 25.85-16.45 25.5-16.45L25.5-16.45Q23.35-16.45 23.35-17.5L23.35-17.5Q23.35-17.7 25.5-19.35L25.5-19.35 26.35-20Q27.15-20.7 27.35-20.7 27.55-20.7 27.55-20.5ZM36.64-13L36.64-13Q36.64-12.65 36.09-11.48 35.55-10.3 32.95-3.4L32.95-3.4Q34.74-5.6 37.49-8.5L37.49-8.5Q43.05-14.3 45.14-14.3L45.14-14.3Q45.59-14.3 46.02-14.05 46.45-13.8 46.45-12.93 46.45-12.05 45.89-10.98 45.34-9.9 44.64-8.35 43.95-6.8 43.7-6.4L43.7-6.4Q47.89-10.2 50.05-11.03 52.2-11.85 52.89-11.85 53.59-11.85 53.59-11.35L53.59-11.35Q53.59-11.05 52.84-9.9 52.09-8.75 51.2-6.5 50.3-4.25 50.2-3.35 50.09-2.45 50.09-1.75 50.09-1.05 50.5-0.6L50.5-0.6Q51.25 0.2 52.55-0.5 53.84-1.2 56.17-3.3 58.5-5.4 59.89-7.4L59.89-7.4Q60.09-7.65 60.37-7.53 60.65-7.4 60.65-7.28 60.65-7.15 60.55-7L60.55-7Q59.8-5.65 57.84-3.55L57.84-3.55Q54.64-0.1 52.5 0.7L52.5 0.7Q50.14 1.5 49.09 0.9 48.05 0.3 47.8-0.45 47.55-1.2 47.55-1.95L47.55-1.95Q47.55-4.3 48.47-6.65 49.39-9 49.95-9.85L49.95-9.85Q48.05-9.05 46.7-7.85L46.7-7.85Q44.64-6.05 43.39-4.7L43.39-4.7 42.39-3.6Q41.95-2.5 40.82-2.35 39.7-2.2 39.74-3.1L39.74-3.1Q39.84-4.05 41.59-7.35 43.34-10.65 43.34-11.03 43.34-11.4 42.95-11.4L42.95-11.4Q42.05-11.4 39.7-9.35L39.7-9.35Q38.14-7.9 35.12-3.88 32.09 0.15 31.7 0.4L31.7 0.4Q29.89 1.3 29.45 1.3 28.99 1.3 28.99 1.15 28.99 1 29.14 0.7 29.29 0.4 32.2-8L32.2-8Q31.09-6.3 30.2-5.4L30.2-5.4Q29.79-4.95 29.79-5.58 29.79-6.2 30.14-6.65L30.14-6.65Q32.39-9.6 33.45-11.65L33.45-11.65Q33.74-13.4 34.64-13.7L34.64-13.7Q35.2-13.9 35.92-13.7 36.64-13.5 36.64-13ZM70.84-14.55L70.84-14.55Q73.54-14.55 73.54-11.95L73.54-11.95Q73.54-10.6 72.79-9.75L72.79-9.75Q71.54-7.9 68.74-6.53 65.94-5.15 63.99-5L63.99-5Q63.29-4.95 63.24-5.4L63.24-5.4Q63.19-5.6 63.37-5.65 63.54-5.7 63.64-5.7L63.64-5.7Q64.79-5.8 66.59-6.8L66.59-6.8Q69.94-8.6 71.49-10.5L71.49-10.5Q72.14-11.4 72.14-12.23 72.14-13.05 71.34-13.05L71.34-13.05Q70.69-13.05 69.59-12.5L69.59-12.5Q67.24-11.4 64.64-8.68 62.04-5.95 61.24-3.35L61.24-3.35Q60.99-2.55 60.99-1.78 60.99-1 61.64-0.3 62.29 0.4 63.64 0.4L63.64 0.4Q65.14 0.4 67.09-0.4L67.09-0.4Q72.74-2.7 75.79-7.35L75.79-7.35Q76.09-7.75 76.34-7.5L76.34-7.5Q76.54-7.4 76.54-7.25 76.54-7.1 76.39-6.9L76.39-6.9Q74.89-4.4 72.59-2.45L72.59-2.45Q68.14 1.35 63.94 1.35L63.94 1.35Q60.34 1.35 58.89-0.8L58.89-0.8Q58.34-1.65 58.34-2.85 58.34-4.05 58.99-5.7L58.99-5.7Q60.24-8.55 64.34-11.55 68.44-14.55 70.84-14.55ZM92.59-25.5L92.59-25.5Q93.19-26.6 93.19-27.2L93.19-27.2Q93.19-28.25 92.34-28.25L92.34-28.25Q91.64-28.25 90.59-27.45L90.59-27.45Q86.59-24.35 82.84-17.65L82.84-17.65Q79.84-12.25 78.44-8.4L78.44-8.4Q81.89-10.75 86.17-16.05 90.44-21.35 92.59-25.5ZM77.69-6.4L77.69-6.4Q77.09-4.7 77.04-4.13 76.99-3.55 76.99-2.58 76.99-1.6 77.49-0.8L77.49-0.8Q78.34 0.55 80.34-0.6L80.34-0.6Q81.84-1.4 84.14-3.53 86.44-5.65 87.69-7.4L87.69-7.4Q87.79-7.55 87.99-7.55L87.99-7.55Q88.44-7.55 88.24-6.9L88.24-6.9Q87.49-5.55 85.47-3.45 83.44-1.35 81.79-0.13 80.14 1.1 78.49 1.1L78.49 1.1Q74.69 1.1 74.69-2.6L74.69-2.6Q74.69-2.75 74.69-2.9L74.69-2.9Q74.89-6.4 78.24-13.48 81.59-20.55 84.29-24.15L84.29-24.15 85.84-26.1Q86.39-26.75 87.44-27.7L87.44-27.7Q89.44-29.6 91.57-29.6 93.69-29.6 94.44-28.3L94.44-28.3Q94.69-27.85 94.69-27 94.69-26.15 93.94-24.6L93.94-24.6Q88.79-15.65 77.69-6.4ZM98.54-14.55L98.54-14.55Q101.24-14.55 101.24-11.95L101.24-11.95Q101.24-10.6 100.49-9.75L100.49-9.75Q99.24-7.9 96.44-6.53 93.64-5.15 91.69-5L91.69-5Q90.99-4.95 90.94-5.4L90.94-5.4Q90.89-5.6 91.06-5.65 91.24-5.7 91.34-5.7L91.34-5.7Q92.49-5.8 94.29-6.8L94.29-6.8Q97.64-8.6 99.19-10.5L99.19-10.5Q99.84-11.4 99.84-12.23 99.84-13.05 99.04-13.05L99.04-13.05Q98.39-13.05 97.29-12.5L97.29-12.5Q94.94-11.4 92.34-8.68 89.74-5.95 88.94-3.35L88.94-3.35Q88.69-2.55 88.69-1.78 88.69-1 89.34-0.3 89.99 0.4 91.34 0.4L91.34 0.4Q92.84 0.4 94.79-0.4L94.79-0.4Q100.44-2.7 103.49-7.35L103.49-7.35Q103.79-7.75 104.04-7.5L104.04-7.5Q104.24-7.4 104.24-7.25 104.24-7.1 104.09-6.9L104.09-6.9Q102.59-4.4 100.29-2.45L100.29-2.45Q95.84 1.35 91.64 1.35L91.64 1.35Q88.04 1.35 86.59-0.8L86.59-0.8Q86.04-1.65 86.04-2.85 86.04-4.05 86.69-5.7L86.69-5.7Q87.94-8.55 92.04-11.55 96.14-14.55 98.54-14.55ZM103.44 0.5L103.44 0.5Q102.79 1.25 103.16 1.7 103.54 2.15 104.01 2.15 104.49 2.15 104.99 2L104.99 2Q107.14 1.35 109.16-0.58 111.19-2.5 111.19-4.5L111.19-4.5Q111.19-5.6 108.74-6.9L108.74-6.9Q107.59-7.5 107.44-7.6L107.44-7.6Q106.09-8.5 105.74-9.4L105.74-9.4Q105.04-8.2 103.49-5.95L103.49-5.95Q103.14-5.55 102.84-5.78 102.54-6 102.79-6.4L102.79-6.4Q104.84-9.2 105.49-11.1L105.49-11.1Q105.84-13.85 109.49-16.05 113.14-18.25 116.14-18.25L116.14-18.25Q118.04-18.25 118.81-17.57 119.59-16.9 119.59-16.25 119.59-15.6 119.21-14.75 118.84-13.9 117.69-13.15L117.69-13.15Q117.39-12.95 117.19-13.25L117.19-13.25Q117.09-13.55 117.61-14.08 118.14-14.6 118.29-15.5 118.44-16.4 117.49-16.6L117.49-16.6Q117.34-16.6 117.19-16.6L117.19-16.6Q115.24-16.6 112.31-15.15 109.39-13.7 107.74-11.4L107.74-11.4Q107.09-10.55 107.09-9.68 107.09-8.8 108.29-8.1L108.29-8.1Q108.79-7.8 109.99-7.15 111.19-6.5 111.69-6.2 112.19-5.9 112.89-5.25 113.59-4.6 113.64-4.05L113.64-4.05Q113.89-2.55 112.24-0.75L112.24-0.75Q109.89 1.85 105.24 2.9L105.24 2.9Q104.19 3.15 103.11 3.15 102.04 3.15 101.64 2.35L101.64 2.35Q101.49 2.15 101.49 1.73 101.49 1.3 102.29 0.35L102.29 0.35Q103.04-0.4 104.69-1.1L104.69-1.1Q104.84-1.15 104.94-1.05 105.04-0.95 104.99-0.8 104.94-0.65 104.46-0.45 103.99-0.25 103.44 0.5ZM118.23 0.5L118.23 0.5Q117.58 1.25 117.96 1.7 118.33 2.15 118.81 2.15 119.28 2.15 119.78 2L119.78 2Q121.93 1.35 123.96-0.58 125.98-2.5 125.98-4.5L125.98-4.5Q125.98-5.6 123.53-6.9L123.53-6.9Q122.38-7.5 122.23-7.6L122.23-7.6Q120.88-8.5 120.53-9.4L120.53-9.4Q119.83-8.2 118.28-5.95L118.28-5.95Q117.93-5.55 117.63-5.78 117.33-6 117.58-6.4L117.58-6.4Q119.63-9.2 120.28-11.1L120.28-11.1Q120.63-13.85 124.28-16.05 127.93-18.25 130.93-18.25L130.93-18.25Q132.83-18.25 133.61-17.57 134.38-16.9 134.38-16.25 134.38-15.6 134.01-14.75 133.63-13.9 132.48-13.15L132.48-13.15Q132.18-12.95 131.98-13.25L131.98-13.25Q131.88-13.55 132.41-14.08 132.93-14.6 133.08-15.5 133.23-16.4 132.28-16.6L132.28-16.6Q132.13-16.6 131.98-16.6L131.98-16.6Q130.03-16.6 127.11-15.15 124.18-13.7 122.53-11.4L122.53-11.4Q121.88-10.55 121.88-9.68 121.88-8.8 123.08-8.1L123.08-8.1Q123.58-7.8 124.78-7.15 125.98-6.5 126.48-6.2 126.98-5.9 127.68-5.25 128.38-4.6 128.43-4.05L128.43-4.05Q128.68-2.55 127.03-0.75L127.03-0.75Q124.68 1.85 120.03 2.9L120.03 2.9Q118.98 3.15 117.91 3.15 116.83 3.15 116.43 2.35L116.43 2.35Q116.28 2.15 116.28 1.73 116.28 1.3 117.08 0.35L117.08 0.35Q117.83-0.4 119.48-1.1L119.48-1.1Q119.63-1.15 119.73-1.05 119.83-0.95 119.78-0.8 119.73-0.65 119.26-0.45 118.78-0.25 118.23 0.5ZM169.68-25.6Q169.78-25.5 170.13-25.48 170.48-25.45 170.75-25.2 171.03-24.95 171.6-23.55 172.18-22.15 172.18-21.23 172.18-20.3 171.95-19.28 171.73-18.25 171.23-18.25L171.23-18.25Q170.38-18.25 169.83-20.23 169.28-22.2 169.03-22.7L169.03-22.7Q167.63-25.65 166.03-27L166.03-27Q164.58-28.35 163.08-28.35L163.08-28.35Q162.43-28.35 161.78-28.1L161.78-28.1Q158.58-26.75 158.58-21.8L158.58-21.8Q158.58-20.2 159.18-18.03 159.78-15.85 161.03-14.2L161.03-14.2Q161.28-13.9 163.68-13.7L163.68-13.7Q164.93-13.55 165.13-12.83 165.33-12.1 164.53-11.7L164.53-11.7Q164.08-11.15 161.08-12L161.08-12Q160.28-12.2 160.03-12.25L160.03-12.25Q157.33-12.2 153.93-11.05 150.53-9.9 147.68-7.53 144.83-5.15 144.83-2.3L144.83-2.3Q144.83-0.15 146.58 1.18 148.33 2.5 152.2 2.5 156.08 2.5 160.85 1.3 165.63 0.1 168.35-1.3 171.08-2.7 173.73-5.25 176.38-7.8 176.38-9.65L176.38-9.65Q176.38-9.95 176.35-10.15 176.33-10.35 176.43-10.4L176.43-10.4Q176.73-10.55 176.93-10.35L176.93-10.35Q177.58-9.1 177.58-8.4L177.58-8.4Q177.58-6.35 176.23-4.7L176.23-4.7Q173.88-1.85 170.93-0.2 167.98 1.45 162.85 2.6 157.73 3.75 154.33 3.75 150.93 3.75 148.55 3.15 146.18 2.55 144.43 0.75 142.68-1.05 142.68-3.68 142.68-6.3 143.95-8.13 145.23-9.95 147-10.95 148.78-11.95 151.28-12.6L151.28-12.6Q154.98-13.6 159.53-13.85L159.53-13.85Q156.28-17.55 155.68-22.4L155.68-22.4Q155.63-22.95 155.63-23.45L155.63-23.45Q155.63-25.25 156.5-26.78 157.38-28.3 159.43-28.95 161.48-29.6 162.48-29.6 163.48-29.6 163.95-29.48 164.43-29.35 164.78-29.23 165.13-29.1 165.48-28.88 165.83-28.65 166.08-28.5 166.33-28.35 166.68-28.03 167.03-27.7 167.18-27.58 167.33-27.45 167.73-27.08 168.13-26.7 168.23-26.65L168.23-26.65Q168.98-25.75 169.68-25.6L169.68-25.6ZM196.68-25.5L196.68-25.5Q197.28-26.6 197.28-27.2L197.28-27.2Q197.28-28.25 196.43-28.25L196.43-28.25Q195.73-28.25 194.68-27.45L194.68-27.45Q190.68-24.35 186.93-17.65L186.93-17.65Q183.93-12.25 182.53-8.4L182.53-8.4Q185.98-10.75 190.25-16.05 194.53-21.35 196.68-25.5ZM181.78-6.4L181.78-6.4Q181.18-4.7 181.13-4.13 181.08-3.55 181.08-2.58 181.08-1.6 181.58-0.8L181.58-0.8Q182.43 0.55 184.43-0.6L184.43-0.6Q185.93-1.4 188.23-3.53 190.53-5.65 191.78-7.4L191.78-7.4Q191.88-7.55 192.08-7.55L192.08-7.55Q192.53-7.55 192.33-6.9L192.33-6.9Q191.58-5.55 189.55-3.45 187.53-1.35 185.88-0.13 184.23 1.1 182.58 1.1L182.58 1.1Q178.78 1.1 178.78-2.6L178.78-2.6Q178.78-2.75 178.78-2.9L178.78-2.9Q178.98-6.4 182.33-13.48 185.68-20.55 188.38-24.15L188.38-24.15 189.93-26.1Q190.48-26.75 191.53-27.7L191.53-27.7Q193.53-29.6 195.65-29.6 197.78-29.6 198.53-28.3L198.53-28.3Q198.78-27.85 198.78-27 198.78-26.15 198.03-24.6L198.03-24.6Q192.88-15.65 181.78-6.4ZM202.62-14.55L202.62-14.55Q205.32-14.55 205.32-11.95L205.32-11.95Q205.32-10.6 204.57-9.75L204.57-9.75Q203.32-7.9 200.52-6.53 197.72-5.15 195.77-5L195.77-5Q195.07-4.95 195.02-5.4L195.02-5.4Q194.97-5.6 195.15-5.65 195.32-5.7 195.42-5.7L195.42-5.7Q196.57-5.8 198.37-6.8L198.37-6.8Q201.72-8.6 203.27-10.5L203.27-10.5Q203.92-11.4 203.92-12.23 203.92-13.05 203.12-13.05L203.12-13.05Q202.47-13.05 201.37-12.5L201.37-12.5Q199.02-11.4 196.42-8.68 193.82-5.95 193.02-3.35L193.02-3.35Q192.77-2.55 192.77-1.78 192.77-1 193.42-0.3 194.07 0.4 195.42 0.4L195.42 0.4Q196.92 0.4 198.87-0.4L198.87-0.4Q204.52-2.7 207.57-7.35L207.57-7.35Q207.87-7.75 208.12-7.5L208.12-7.5Q208.32-7.4 208.32-7.25 208.32-7.1 208.17-6.9L208.17-6.9Q206.67-4.4 204.37-2.45L204.37-2.45Q199.92 1.35 195.72 1.35L195.72 1.35Q192.12 1.35 190.67-0.8L190.67-0.8Q190.12-1.65 190.12-2.85 190.12-4.05 190.77-5.7L190.77-5.7Q192.02-8.55 196.12-11.55 200.22-14.55 202.62-14.55ZM205.67 19.05L205.67 19.05Q205.27 19.05 204.67 18.9L204.67 18.9Q202.12 18.25 202.12 16.23 202.12 14.2 204.75 11.15 207.37 8.1 215.82 2.5L215.82 2.5Q219.42-4.85 220.82-9.15L220.82-9.15Q218.02-5.75 216.82-4.45L216.82-4.45Q212.32 0.55 209.57 0.55L209.57 0.55Q208.77 0.55 207.84 0.08 206.92-0.4 206.27-1.28 205.62-2.15 205.62-3.15L205.62-3.15Q205.62-5.8 209.32-9.1L209.32-9.1Q211.52-11.1 213.92-12.5 216.32-13.9 217.72-14.25 219.12-14.6 220.42-14.6 221.72-14.6 222.72-13.9 223.72-13.2 223.72-12.5L223.72-12.5Q223.72-12.1 223.32-12.25L223.32-12.25Q222.77-13.2 220.9-13.2 219.02-13.2 216.65-11.98 214.27-10.75 212.37-9.08 210.47-7.4 209.15-5.28 207.82-3.15 207.82-2.15L207.82-2.15Q207.82-0.4 208.82-0.4L208.82-0.4Q210.22-0.4 213.12-2.7L213.12-2.7Q217.42-6.05 221.37-10.85L221.37-10.85Q222.02-11.8 224.07-10.8L224.07-10.8Q224.87-10.4 224.72-10.1L224.72-10.1Q224.07-8.65 222.34-5.08 220.62-1.5 219.77 0.3L219.77 0.3Q220.92-0.3 223.7-2.73 226.47-5.15 228.57-7.6L228.57-7.6Q229.67-8.9 229.67-8L229.67-8Q229.67-6.75 223.67-1.4L223.67-1.4Q220.22 1.7 218.77 2.5L218.77 2.5Q214.52 11.25 213.07 13.5L213.07 13.5Q209.32 19.05 205.67 19.05ZM214.87 4.4L214.87 4.4Q208.87 8.9 206.27 11.53 203.67 14.15 203.67 16.45L203.67 16.45Q203.67 17.15 204.12 17.45 204.57 17.75 205.07 17.75 205.57 17.75 206.52 17 207.47 16.25 208.15 15.53 208.82 14.8 209.32 14.18 209.82 13.55 210.45 12.58 211.07 11.6 211.42 11.05 211.77 10.5 212.4 9.33 213.02 8.15 213.25 7.73 213.47 7.3 214.09 6 214.72 4.7 214.87 4.4ZM230.32 0.55L230.32 0.55Q229.52 0.55 228.59 0.08 227.67-0.4 227.02-1.28 226.37-2.15 226.37-3.15 226.37-4.15 226.82-5.05L226.82-5.05Q227.82-7.15 230.04-9.13 232.27-11.1 234.67-12.5 237.07-13.9 238.47-14.25 239.87-14.6 241.19-14.6 242.52-14.6 243.47-13.93 244.42-13.25 244.42-12.5L244.42-12.5Q244.42-12.25 244.37-12.2 244.32-12.15 244.12-12.25L244.12-12.25Q243.52-13.2 241.64-13.2 239.77-13.2 237.39-11.98 235.02-10.75 232.92-8.9L232.92-8.9Q231.17-7.25 229.84-5.18 228.52-3.1 228.52-2.15L228.52-2.15Q228.52-0.3 229.57-0.3 230.62-0.3 232.77-2L232.77-2Q236.32-5 237.62-6.4L237.62-6.4Q242.22-11.35 242.57-11.35L242.57-11.35Q243.17-11.35 244.02-11 244.87-10.65 244.57-10.15L244.57-10.15Q242.02-6.55 241.57-2.9L241.57-2.9Q241.52-2.45 241.52-1.75 241.52-1.05 241.92-0.6L241.92-0.6Q242.67 0.2 243.97-0.5 245.27-1.2 247.59-3.3 249.92-5.4 251.32-7.4L251.32-7.4Q251.52-7.65 251.77-7.53 252.02-7.4 252.02-7.3L252.02-7.3Q252.02-6.55 249.64-4.03 247.27-1.5 246.02-0.6L246.02-0.6Q243.67 1.15 241.67 1.15L241.67 1.15Q239.77 1.15 239.12-0.75L239.12-0.75Q238.97-1.35 238.97-2.1L238.97-2.1Q238.97-4.35 239.92-6.85L239.92-6.85Q239.72-6.75 238.07-4.85 236.42-2.95 234.24-1.2 232.07 0.55 230.32 0.55ZM264.56-14.2L264.56-14.2Q265.72-14.2 265.72-12.98 265.72-11.75 264.56-9.6 263.42-7.45 262.87-6.1L262.87-6.1Q261.92-3.8 261.92-2.43 261.92-1.05 262.31-0.6L262.31-0.6Q263.06 0.2 264.37-0.53 265.67-1.25 267.99-3.33 270.31-5.4 271.72-7.4L271.72-7.4Q271.92-7.65 272.19-7.53 272.47-7.4 272.47-7.28 272.47-7.15 272.37-7L272.37-7Q271.62-5.65 269.67-3.55 267.72-1.45 265.92-0.18 264.12 1.1 262.37 1.1L262.37 1.1Q260.67 1.05 259.97 0.33 259.27-0.4 259.27-1.5 259.27-2.6 259.47-3.63 259.67-4.65 260.22-6L260.22-6Q261.12-8.15 261.79-9.35 262.47-10.55 262.47-10.93 262.47-11.3 262.06-11.3L262.06-11.3Q261.27-11.3 259.02-9.35L259.02-9.35Q257.47-7.9 254.44-3.88 251.42 0.15 251.02 0.4L251.02 0.4Q249.22 1.3 248.77 1.3 248.32 1.3 248.32 1.15 248.32 1 248.42 0.73 248.52 0.45 249.39-2 250.27-4.45 251.29-7.38 252.32-10.3 252.54-10.9 252.77-11.5 252.84-11.93 252.92-12.35 253.02-12.65 253.12-12.95 253.39-13.33 253.67-13.7 254.12-13.73 254.57-13.75 255.27-13.63 255.97-13.5 255.97-13L255.97-13Q255.97-12.65 255.42-11.48 254.87-10.3 252.27-3.4L252.27-3.4Q254.07-5.6 256.81-8.47 259.56-11.35 261.47-12.85L261.47-12.85Q263.37-14.2 264.56-14.2ZM283.66-11L283.66-11 283.91-12Q283.91-13 283.16-13L283.16-13Q281.11-13 277.56-9.8 274.01-6.6 273.06-3.35L273.06-3.35Q272.81-2.5 272.81-1.83 272.81-1.15 273.11-0.7L273.11-0.7Q273.71 0.2 274.96 0.2 276.21 0.2 277.66-0.15L277.66-0.15Q280.86-1.05 282.99-2.73 285.11-4.4 287.46-7.4L287.46-7.4Q287.66-7.65 287.94-7.55 288.21-7.45 288.21-7.28 288.21-7.1 288.06-6.75L288.06-6.75Q285.66-3.5 283.04-1.48 280.41 0.55 276.96 1.15L276.96 1.15Q275.96 1.3 275.11 1.3L275.11 1.3Q272.66 1.3 271.39 0.1 270.11-1.1 270.11-2.55 270.11-4 270.81-5.7L270.81-5.7Q272.06-8.55 276.16-11.55 280.26-14.55 282.66-14.55L282.66-14.55Q283.26-14.55 283.81-14.4L283.81-14.4Q285.21-13.9 285.21-12.8L285.21-12.8Q285.21-12.05 284.66-11.1 284.11-10.15 283.84-10.43 283.56-10.7 283.66-11ZM298.41-14.55L298.41-14.55Q301.11-14.55 301.11-11.95L301.11-11.95Q301.11-10.6 300.36-9.75L300.36-9.75Q299.11-7.9 296.31-6.53 293.51-5.15 291.56-5L291.56-5Q290.86-4.95 290.81-5.4L290.81-5.4Q290.76-5.6 290.94-5.65 291.11-5.7 291.21-5.7L291.21-5.7Q292.36-5.8 294.16-6.8L294.16-6.8Q297.51-8.6 299.06-10.5L299.06-10.5Q299.71-11.4 299.71-12.23 299.71-13.05 298.91-13.05L298.91-13.05Q298.26-13.05 297.16-12.5L297.16-12.5Q294.81-11.4 292.21-8.68 289.61-5.95 288.81-3.35L288.81-3.35Q288.56-2.55 288.56-1.78 288.56-1 289.21-0.3 289.86 0.4 291.21 0.4L291.21 0.4Q292.71 0.4 294.66-0.4L294.66-0.4Q300.31-2.7 303.36-7.35L303.36-7.35Q303.66-7.75 303.91-7.5L303.91-7.5Q304.11-7.4 304.11-7.25 304.11-7.1 303.96-6.9L303.96-6.9Q302.46-4.4 300.16-2.45L300.16-2.45Q295.71 1.35 291.51 1.35L291.51 1.35Q287.91 1.35 286.46-0.8L286.46-0.8Q285.91-1.65 285.91-2.85 285.91-4.05 286.56-5.7L286.56-5.7Q287.81-8.55 291.91-11.55 296.01-14.55 298.41-14.55ZM324.11-5.5L324.11-5.5Q325-7.35 325-8.35 325-9.35 324.78-9.93 324.56-10.5 324.98-10.9 325.4-11.3 326.06-11.2L326.06-11.2Q327.06-10.95 327.06-8.95 327.06-6.95 324.7-3.7L324.7-3.7Q324.75-2.35 326.11-2.35 327.45-2.35 330.2-5.25L330.2-5.25Q331.5-6.75 331.83-7.2 332.15-7.65 332.4-7.53 332.65-7.4 332.65-7.3L332.65-7.3Q332.65-6.8 330.86-4.7L330.86-4.7Q328-1.2 325.81-1.2L325.81-1.2Q324.36-1.2 323.75-2.45L323.75-2.45Q322.75-1.4 321.81-0.5L321.81-0.5Q319.86 1.15 317.45 1.15L317.45 1.15Q316.11 1.15 315.2 0.5L315.2 0.5Q313.45-0.55 313.45-3.25L313.45-3.25Q313.45-6.2 315.45-9.25L315.45-9.25Q316.61-11.05 318.15-12.4L318.15-12.4Q320.61-14.55 322.81-14.55L322.81-14.55Q323.36-14.55 323.86-14.4L323.86-14.4Q325.36-13.9 325.36-12.5L325.36-12.5Q325.36-11.35 324.75-11.35L324.75-11.35Q324.5-11.45 324.5-12.1L324.5-12.1Q324.5-13 323.5-13L323.5-13Q321.75-13 319-9.8 316.25-6.6 315.7-3.35L315.7-3.35Q315.61-2.8 315.61-2.13 315.61-1.45 316.06-0.58 316.5 0.3 317.73 0.3 318.95 0.3 320.4-0.8 321.86-1.9 323-3.6L323-3.6 322.86-3.9Q322.65-4.7 323.06-5.2 323.45-5.7 324.11-5.5ZM345.2-14.2L345.2-14.2Q346.35-14.2 346.35-12.98 346.35-11.75 345.2-9.6 344.05-7.45 343.5-6.1L343.5-6.1Q342.55-3.8 342.55-2.43 342.55-1.05 342.95-0.6L342.95-0.6Q343.7 0.2 345-0.53 346.3-1.25 348.63-3.33 350.95-5.4 352.35-7.4L352.35-7.4Q352.55-7.65 352.83-7.53 353.1-7.4 353.1-7.28 353.1-7.15 353-7L353-7Q352.25-5.65 350.3-3.55 348.35-1.45 346.55-0.18 344.75 1.1 343 1.1L343 1.1Q341.3 1.05 340.6 0.33 339.9-0.4 339.9-1.5 339.9-2.6 340.1-3.63 340.3-4.65 340.85-6L340.85-6Q341.75-8.15 342.43-9.35 343.1-10.55 343.1-10.93 343.1-11.3 342.7-11.3L342.7-11.3Q341.9-11.3 339.65-9.35L339.65-9.35Q338.1-7.9 335.08-3.88 332.05 0.15 331.65 0.4L331.65 0.4Q329.85 1.3 329.4 1.3 328.95 1.3 328.95 1.15 328.95 1 329.05 0.73 329.15 0.45 330.03-2 330.9-4.45 331.93-7.38 332.95-10.3 333.18-10.9 333.4-11.5 333.48-11.93 333.55-12.35 333.65-12.65 333.75-12.95 334.03-13.33 334.3-13.7 334.75-13.73 335.2-13.75 335.9-13.63 336.6-13.5 336.6-13L336.6-13Q336.6-12.65 336.05-11.48 335.5-10.3 332.9-3.4L332.9-3.4Q334.7-5.6 337.45-8.47 340.2-11.35 342.1-12.85L342.1-12.85Q344-14.2 345.2-14.2ZM388.9-25.6Q389-25.5 389.35-25.48 389.7-25.45 389.97-25.2 390.25-24.95 390.82-23.55 391.4-22.15 391.4-21.23 391.4-20.3 391.17-19.28 390.95-18.25 390.45-18.25L390.45-18.25Q389.6-18.25 389.05-20.23 388.5-22.2 388.25-22.7L388.25-22.7Q386.85-25.65 385.25-27L385.25-27Q383.8-28.35 382.3-28.35L382.3-28.35Q381.65-28.35 381-28.1L381-28.1Q377.8-26.75 377.8-21.8L377.8-21.8Q377.8-20.2 378.4-18.03 379-15.85 380.25-14.2L380.25-14.2Q380.5-13.9 382.9-13.7L382.9-13.7Q384.15-13.55 384.35-12.83 384.55-12.1 383.75-11.7L383.75-11.7Q383.3-11.15 380.3-12L380.3-12Q379.5-12.2 379.25-12.25L379.25-12.25Q376.55-12.2 373.15-11.05 369.75-9.9 366.9-7.53 364.05-5.15 364.05-2.3L364.05-2.3Q364.05-0.15 365.8 1.18 367.55 2.5 371.42 2.5 375.3 2.5 380.07 1.3 384.85 0.1 387.57-1.3 390.3-2.7 392.95-5.25 395.6-7.8 395.6-9.65L395.6-9.65Q395.6-9.95 395.57-10.15 395.55-10.35 395.65-10.4L395.65-10.4Q395.95-10.55 396.15-10.35L396.15-10.35Q396.8-9.1 396.8-8.4L396.8-8.4Q396.8-6.35 395.45-4.7L395.45-4.7Q393.1-1.85 390.15-0.2 387.2 1.45 382.07 2.6 376.95 3.75 373.55 3.75 370.15 3.75 367.77 3.15 365.4 2.55 363.65 0.75 361.9-1.05 361.9-3.68 361.9-6.3 363.17-8.13 364.45-9.95 366.22-10.95 368-11.95 370.5-12.6L370.5-12.6Q374.2-13.6 378.75-13.85L378.75-13.85Q375.5-17.55 374.9-22.4L374.9-22.4Q374.85-22.95 374.85-23.45L374.85-23.45Q374.85-25.25 375.72-26.78 376.6-28.3 378.65-28.95 380.7-29.6 381.7-29.6 382.7-29.6 383.17-29.48 383.65-29.35 384-29.23 384.35-29.1 384.7-28.88 385.05-28.65 385.3-28.5 385.55-28.35 385.9-28.03 386.25-27.7 386.4-27.58 386.55-27.45 386.95-27.08 387.35-26.7 387.45-26.65L387.45-26.65Q388.2-25.75 388.9-25.6L388.9-25.6ZM401.15-11.15L401.15-11.15Q401.15-13.55 399.75-13.55L399.75-13.55Q399.44-13.55 399.12-13.48 398.8-13.4 398.8-13.6 398.8-13.8 399.1-14.1L399.1-14.1Q399.4-14.35 401.15-14.5L401.15-14.5Q403.25-14.5 403.77-13.9 404.3-13.3 404.3-12.7 404.3-12.1 403.37-9.73 402.44-7.35 402.4-7.25L402.4-7.25Q400.9-2.75 401.05-1.6L401.05-1.6Q405.55-7.65 406.94-9.15L406.94-9.15Q409.9-12.4 411.15-13.6L411.15-13.6Q414.05-16.3 416.25-17.25L416.25-17.25Q416.9-17.5 417.4-17.5L417.4-17.5Q419.05-17.5 419.65-16.5L419.65-16.5Q419.85-16.25 419.85-16.03 419.85-15.8 419.69-15.5 419.55-15.2 419.15-15.53 418.75-15.85 417.35-15.85L417.35-15.85Q415.05-15.85 409.65-10.45L409.65-10.45Q406.4-7.1 403.67-3.45 400.94 0.2 400.75 1.75L400.75 1.75Q400.75 2.15 400 2.15 399.25 2.15 398.87 1.53 398.5 0.9 398.5 0.48 398.5 0.05 398.55-0.28 398.6-0.6 399.55-3.95 400.5-7.3 400.75-8.4L400.75-8.4Q400.15-7.4 399.1-5.95L399.1-5.95Q398.75-5.55 398.52-5.73 398.3-5.9 398.3-6.05 398.3-6.2 398.4-6.4L398.4-6.4Q400.5-9.25 401.15-11.15ZM425.84-14.55L425.84-14.55Q428.54-14.55 428.54-11.95L428.54-11.95Q428.54-10.6 427.79-9.75L427.79-9.75Q426.54-7.9 423.74-6.53 420.94-5.15 418.99-5L418.99-5Q418.29-4.95 418.24-5.4L418.24-5.4Q418.19-5.6 418.37-5.65 418.54-5.7 418.64-5.7L418.64-5.7Q419.79-5.8 421.59-6.8L421.59-6.8Q424.94-8.6 426.49-10.5L426.49-10.5Q427.14-11.4 427.14-12.23 427.14-13.05 426.34-13.05L426.34-13.05Q425.69-13.05 424.59-12.5L424.59-12.5Q422.24-11.4 419.64-8.68 417.04-5.95 416.24-3.35L416.24-3.35Q415.99-2.55 415.99-1.78 415.99-1 416.64-0.3 417.29 0.4 418.64 0.4L418.64 0.4Q420.14 0.4 422.09-0.4L422.09-0.4Q427.74-2.7 430.79-7.35L430.79-7.35Q431.09-7.75 431.34-7.5L431.34-7.5Q431.54-7.4 431.54-7.25 431.54-7.1 431.39-6.9L431.39-6.9Q429.89-4.4 427.59-2.45L427.59-2.45Q423.14 1.35 418.94 1.35L418.94 1.35Q415.34 1.35 413.89-0.8L413.89-0.8Q413.34-1.65 413.34-2.85 413.34-4.05 413.99-5.7L413.99-5.7Q415.24-8.55 419.34-11.55 423.44-14.55 425.84-14.55ZM436.84 1.25L436.84 1.25Q434.29 1.25 434.29-1.83 434.29-4.9 438.69-9.4L438.69-9.4Q439.04-9.75 439.19-9.95L439.19-9.95 439.54-10.45Q440.24-11.4 440.19-11.65L440.19-11.65 440.04-12.1Q439.84-12.7 438.39-12.98 436.94-13.25 436.04-13.25L436.04-13.25Q431.54-6.9 430.84-6 430.14-5.1 429.89-5.25 429.64-5.4 429.64-5.6 429.64-5.8 429.94-6.2L429.94-6.2Q432.64-9.5 434.59-13.25L434.59-13.25Q433.99-13.35 433.69-13.68 433.39-14 433.64-14.78 433.89-15.55 435.17-16.85 436.44-18.15 437.39-18.6 438.34-19.05 438.59-19.15 438.84-19.25 439.14-19.25L439.14-19.25Q439.74-19.25 438.74-17.45L438.74-17.45 436.79-14.35Q439.04-14.2 440.64-14.2L440.64-14.2 442.39-14.25Q443.24-14.25 443.64-14.03 444.04-13.8 443.84-13.25L443.84-13.25Q443.49-12.3 442.09-10.7L442.09-10.7Q439.09-7.2 437.59-3.25L437.59-3.25Q437.24-2.3 437.24-1.6L437.24-1.6Q437.24-0.15 438.29-0.15L438.29-0.15Q438.64-0.15 439.62-0.7 440.59-1.25 442.89-3.33 445.19-5.4 446.59-7.4L446.59-7.4Q446.79-7.65 447.06-7.53 447.34-7.4 447.34-7.28 447.34-7.15 447.24-7L447.24-7Q446.49-5.65 444.54-3.55 442.59-1.45 440.74-0.15L440.74-0.15Q438.94 1.25 436.84 1.25ZM444.64 19.05L444.64 19.05Q444.24 19.05 443.64 18.9L443.64 18.9Q441.09 18.25 441.09 16.23 441.09 14.2 443.71 11.15 446.34 8.1 454.79 2.5L454.79 2.5Q459.49-7.1 460.74-10.95L460.74-10.95Q460.14-10.25 458.39-7.93 456.64-5.6 455.29-3.98 453.94-2.35 452.04-0.9 450.14 0.55 448.54 0.55 446.94 0.55 446.06-0.18 445.19-0.9 445.09-1.7 444.99-2.5 444.99-3.05L444.99-3.05Q444.99-4.9 445.99-6.75L445.99-6.75Q447.49-9.8 450.04-12L450.04-12Q450.99-12.9 451.71-12.9 452.44-12.9 453.04-12.45L453.04-12.45Q453.69-11.75 453.44-11.25L453.44-11.25Q451.54-10.15 449.09-7L449.09-7Q447.79-5.3 447.29-2.7L447.29-2.7Q447.24-2.35 447.24-1.83 447.24-1.3 447.66-0.98 448.09-0.65 448.54-0.65L448.54-0.65Q450.09-0.65 451.79-2.3 453.49-3.95 455.04-5.78 456.59-7.6 458.56-10.15 460.54-12.7 461.16-13.5 461.79-14.3 462.44-14.3L462.44-14.3Q463.24-14.3 464.09-13.85 464.94-13.4 464.81-13.15 464.69-12.9 462.26-7.48 459.84-2.05 458.74 0.3L458.74 0.3Q459.94-0.35 462.81-2.78 465.69-5.2 467.69-7.7L467.69-7.7Q468.19-8.3 468.34-7.8L468.34-7.8Q468.39-7.7 468.39-7.48 468.39-7.25 468.09-6.85L468.09-6.85Q466.54-4.8 463.14-1.7 459.74 1.4 457.74 2.5L457.74 2.5Q453.49 11.25 452.04 13.5L452.04 13.5Q448.29 19.05 444.64 19.05ZM453.84 4.4L453.84 4.4Q447.84 8.9 445.26 11.5 442.69 14.1 442.69 15.98 442.69 17.85 443.99 17.85L443.99 17.85Q444.99 17.85 446.29 16.82 447.59 15.8 448.79 14.1 449.99 12.4 450.61 11.18 451.24 9.95 452.34 7.58 453.44 5.2 453.84 4.4ZM486.58-24.7L486.58-24.7Q488.53-27.15 493.48-28.05L493.48-28.05Q495.63-28.4 497.88-28.4 500.13-28.4 502.53-28L502.53-28Q503.83-29.45 505.18-29.45L505.18-29.45Q505.53-29.45 505.66-29.28 505.78-29.1 505.63-28.9 505.48-28.7 504.96-28.53 504.43-28.35 503.73-27.75L503.73-27.75Q505.43-27.25 506.08-26.93 506.73-26.6 507.06-26.1 507.38-25.6 507.38-25.4L507.38-25.4Q507.38-24.95 506.01-25.4 504.63-25.85 502.78-26.1L502.78-26.1Q501.88-23.95 500.88-20.2 499.88-16.45 499.68-15.7L499.68-15.7Q502.38-16.35 503.31-16.35 504.23-16.35 504.43-16.23 504.63-16.1 504.66-15.9 504.68-15.7 504.58-15.58 504.48-15.45 504.26-15.55 504.03-15.65 503.43-15.65 502.83-15.65 501.18-15.23 499.53-14.8 499.23-13.95L499.23-13.95Q494.63-1.3 487.53 3.65L487.53 3.65Q484.38 5.9 481.78 5.9L481.78 5.9Q480.83 5.9 479.98 5.6L479.98 5.6Q477.43 4.75 477.43 1.83 477.43-1.1 480.48-4.6L480.48-4.6Q486.63-11.65 497.08-14.95L497.08-14.95Q497.23-15.4 498.03-17.9L498.03-17.9Q499.78-23.6 501.28-26.2L501.28-26.2Q500.68-26.2 499.48-26.2 498.28-26.2 496.08-25.95L496.08-25.95Q490.43-25.3 488.03-23.1L488.03-23.1Q486.78-21.9 486.78-20.35L486.78-20.35Q486.78-19.6 487.21-19 487.63-18.4 488.03-18.15L488.03-18.15Q488.68-17.7 489.78-17.15L489.78-17.15Q490.38-16.7 490.03-16.6L490.03-16.6Q489.88-16.6 489.68-16.65L489.68-16.65Q488.48-16.9 487.13-18.1 485.78-19.3 485.73-20.85L485.73-20.85Q485.58-21.4 485.58-21.75L485.58-21.75Q485.58-23.4 486.58-24.7ZM480.03 1.45L480.03 1.45Q480.03 2 480.13 2.55L480.13 2.55Q480.63 4.45 482.63 4.45L482.63 4.45Q485.58 4.45 488.83 0.5L488.83 0.5Q493.63-5.35 496.78-14L496.78-14Q488.03-11.15 482.93-4.75L482.93-4.75Q480.03-1.2 480.03 1.45ZM516.78-5.5L516.78-5.5Q517.68-7.35 517.68-8.35 517.68-9.35 517.46-9.93 517.23-10.5 517.65-10.9 518.08-11.3 518.73-11.2L518.73-11.2Q519.73-10.95 519.73-8.95 519.73-6.95 517.38-3.7L517.38-3.7Q517.43-2.35 518.78-2.35 520.13-2.35 522.88-5.25L522.88-5.25Q524.18-6.75 524.5-7.2 524.83-7.65 525.08-7.53 525.33-7.4 525.33-7.3L525.33-7.3Q525.33-6.8 523.53-4.7L523.53-4.7Q520.68-1.2 518.48-1.2L518.48-1.2Q517.03-1.2 516.43-2.45L516.43-2.45Q515.43-1.4 514.48-0.5L514.48-0.5Q512.53 1.15 510.13 1.15L510.13 1.15Q508.78 1.15 507.88 0.5L507.88 0.5Q506.13-0.55 506.13-3.25L506.13-3.25Q506.13-6.2 508.13-9.25L508.13-9.25Q509.28-11.05 510.83-12.4L510.83-12.4Q513.28-14.55 515.48-14.55L515.48-14.55Q516.03-14.55 516.53-14.4L516.53-14.4Q518.03-13.9 518.03-12.5L518.03-12.5Q518.03-11.35 517.43-11.35L517.43-11.35Q517.18-11.45 517.18-12.1L517.18-12.1Q517.18-13 516.18-13L516.18-13Q514.43-13 511.68-9.8 508.93-6.6 508.38-3.35L508.38-3.35Q508.28-2.8 508.28-2.13 508.28-1.45 508.73-0.58 509.18 0.3 510.41 0.3 511.63 0.3 513.08-0.8 514.53-1.9 515.68-3.6L515.68-3.6 515.53-3.9Q515.33-4.7 515.73-5.2 516.13-5.7 516.78-5.5ZM547.48-7Q546.73-5.65 544.78-3.55 542.83-1.45 541.28-0.3L541.28-0.3Q539.28 1.15 536.93 1.15L536.93 1.15Q536.48 1.15 535.75 0.73 535.03 0.3 534.78-0.5 534.53-1.3 534.53-2.05L534.53-2.05Q534.53-4.65 535.53-7.2L535.53-7.2Q535.38-7.1 534.15-5.08 532.93-3.05 531.15-1.25 529.38 0.55 527.58 0.55L527.58 0.55Q526.73 0.55 525.63 0.1L525.63 0.1Q523.63-0.8 523.63-3.2L523.63-3.2Q523.63-6.15 525.65-9.28 527.68-12.4 528.23-12.6L528.23-12.6Q528.98-12.8 529.65-12.8 530.33-12.8 531.03-12.53 531.73-12.25 530.83-11.6L530.83-11.6Q527.38-8.45 525.93-4.6L525.93-4.6Q525.38-3.1 525.38-2.08 525.38-1.05 525.9-0.75 526.43-0.45 526.93-0.45L526.93-0.45Q528.13-0.45 530.2-2.13 532.28-3.8 535.93-9.1L535.93-9.1Q536.43-9.85 537.68-12.03 538.93-14.2 539.18-14.6L539.18-14.6Q539.98-14.6 541.05-14.23 542.13-13.85 541.78-13.25L541.78-13.25Q539.38-9.25 538.4-7.35 537.43-5.45 537.08-2.9L537.08-2.9Q537.03-2.45 537.03-1.75 537.03-1.05 537.43-0.6L537.43-0.6Q538.18 0.2 539.5-0.53 540.83-1.25 543.13-3.33 545.43-5.4 546.83-7.4L546.83-7.4Q547.03-7.65 547.3-7.53 547.58-7.4 547.58-7.28 547.58-7.15 547.48-7L547.48-7ZM552.82 1.25L552.82 1.25Q550.27 1.25 550.27-1.83 550.27-4.9 554.67-9.4L554.67-9.4Q555.02-9.75 555.17-9.95L555.17-9.95 555.52-10.45Q556.22-11.4 556.17-11.65L556.17-11.65 556.02-12.1Q555.82-12.7 554.37-12.98 552.92-13.25 552.02-13.25L552.02-13.25Q547.52-6.9 546.82-6 546.12-5.1 545.87-5.25 545.62-5.4 545.62-5.6 545.62-5.8 545.92-6.2L545.92-6.2Q548.62-9.5 550.57-13.25L550.57-13.25Q549.97-13.35 549.67-13.68 549.37-14 549.62-14.78 549.87-15.55 551.15-16.85 552.42-18.15 553.37-18.6 554.32-19.05 554.57-19.15 554.82-19.25 555.12-19.25L555.12-19.25Q555.72-19.25 554.72-17.45L554.72-17.45 552.77-14.35Q555.02-14.2 556.62-14.2L556.62-14.2 558.37-14.25Q559.22-14.25 559.62-14.03 560.02-13.8 559.82-13.25L559.82-13.25Q559.47-12.3 558.07-10.7L558.07-10.7Q555.07-7.2 553.57-3.25L553.57-3.25Q553.22-2.3 553.22-1.6L553.22-1.6Q553.22-0.15 554.27-0.15L554.27-0.15Q554.62-0.15 555.6-0.7 556.57-1.25 558.87-3.33 561.17-5.4 562.57-7.4L562.57-7.4Q562.77-7.65 563.05-7.53 563.32-7.4 563.32-7.28 563.32-7.15 563.22-7L563.22-7Q562.47-5.65 560.52-3.55 558.57-1.45 556.72-0.15L556.72-0.15Q554.92 1.25 552.82 1.25ZM575.87-14.2L575.87-14.2Q577.02-14.2 577.02-12.98 577.02-11.75 575.87-9.6 574.72-7.45 574.17-6.1L574.17-6.1Q573.22-3.8 573.22-2.43 573.22-1.05 573.62-0.6L573.62-0.6Q574.37 0.2 575.67-0.53 576.97-1.25 579.3-3.33 581.62-5.4 583.02-7.4L583.02-7.4Q583.22-7.65 583.5-7.53 583.77-7.4 583.77-7.28 583.77-7.15 583.67-7L583.67-7Q582.92-5.65 580.97-3.55 579.02-1.45 577.22-0.18 575.42 1.1 573.67 1.1L573.67 1.1Q571.97 1.05 571.27 0.33 570.57-0.4 570.57-1.5 570.57-2.6 570.77-3.63 570.97-4.65 571.52-6L571.52-6Q572.42-8.15 573.1-9.35 573.77-10.55 573.77-10.93 573.77-11.3 573.37-11.3L573.37-11.3Q572.57-11.3 570.32-9.35L570.32-9.35Q568.77-7.9 565.75-3.88 562.72 0.15 562.32 0.4L562.32 0.4Q560.52 1.3 560.07 1.3 559.62 1.3 559.62 1.15 559.62 1 559.72 0.73 559.82 0.45 560.7-2 561.57-4.45 562.6-7.38 563.62-10.3 563.85-10.9 564.07-11.5 564.15-11.93 564.22-12.35 564.32-12.65 564.42-12.95 564.7-13.33 564.97-13.7 565.42-13.73 565.87-13.75 566.57-13.63 567.27-13.5 567.27-13L567.27-13Q567.27-12.65 566.72-11.48 566.17-10.3 563.57-3.4L563.57-3.4Q565.37-5.6 568.12-8.47 570.87-11.35 572.77-12.85L572.77-12.85Q574.67-14.2 575.87-14.2ZM593.97-14.55L593.97-14.55Q596.67-14.55 596.67-11.95L596.67-11.95Q596.67-10.6 595.92-9.75L595.92-9.75Q594.67-7.9 591.87-6.53 589.07-5.15 587.12-5L587.12-5Q586.42-4.95 586.37-5.4L586.37-5.4Q586.32-5.6 586.49-5.65 586.67-5.7 586.77-5.7L586.77-5.7Q587.92-5.8 589.72-6.8L589.72-6.8Q593.07-8.6 594.62-10.5L594.62-10.5Q595.27-11.4 595.27-12.23 595.27-13.05 594.47-13.05L594.47-13.05Q593.82-13.05 592.72-12.5L592.72-12.5Q590.37-11.4 587.77-8.68 585.17-5.95 584.37-3.35L584.37-3.35Q584.12-2.55 584.12-1.78 584.12-1 584.77-0.3 585.42 0.4 586.77 0.4L586.77 0.4Q588.27 0.4 590.22-0.4L590.22-0.4Q595.87-2.7 598.92-7.35L598.92-7.35Q599.22-7.75 599.47-7.5L599.47-7.5Q599.67-7.4 599.67-7.25 599.67-7.1 599.52-6.9L599.52-6.9Q598.02-4.4 595.72-2.45L595.72-2.45Q591.27 1.35 587.07 1.35L587.07 1.35Q583.47 1.35 582.02-0.8L582.02-0.8Q581.47-1.65 581.47-2.85 581.47-4.05 582.12-5.7L582.12-5.7Q583.37-8.55 587.47-11.55 591.57-14.55 593.97-14.55ZM597.02 19.05L597.02 19.05Q596.62 19.05 596.02 18.9L596.02 18.9Q593.47 18.25 593.47 16.23 593.47 14.2 596.09 11.15 598.72 8.1 607.17 2.5L607.17 2.5Q611.87-7.1 613.12-10.95L613.12-10.95Q612.52-10.25 610.77-7.93 609.02-5.6 607.67-3.98 606.32-2.35 604.42-0.9 602.52 0.55 600.92 0.55 599.32 0.55 598.44-0.18 597.57-0.9 597.47-1.7 597.37-2.5 597.37-3.05L597.37-3.05Q597.37-4.9 598.37-6.75L598.37-6.75Q599.87-9.8 602.42-12L602.42-12Q603.37-12.9 604.09-12.9 604.82-12.9 605.42-12.45L605.42-12.45Q606.07-11.75 605.82-11.25L605.82-11.25Q603.92-10.15 601.47-7L601.47-7Q600.17-5.3 599.67-2.7L599.67-2.7Q599.62-2.35 599.62-1.83 599.62-1.3 600.04-0.98 600.47-0.65 600.92-0.65L600.92-0.65Q602.47-0.65 604.17-2.3 605.87-3.95 607.42-5.78 608.97-7.6 610.94-10.15 612.92-12.7 613.54-13.5 614.17-14.3 614.82-14.3L614.82-14.3Q615.62-14.3 616.47-13.85 617.32-13.4 617.19-13.15 617.07-12.9 614.64-7.48 612.22-2.05 611.12 0.3L611.12 0.3Q612.32-0.35 615.19-2.78 618.07-5.2 620.07-7.7L620.07-7.7Q620.57-8.3 620.72-7.8L620.72-7.8Q620.77-7.7 620.77-7.48 620.77-7.25 620.47-6.85L620.47-6.85Q618.92-4.8 615.52-1.7 612.12 1.4 610.12 2.5L610.12 2.5Q605.87 11.25 604.42 13.5L604.42 13.5Q600.67 19.05 597.02 19.05ZM606.22 4.4L606.22 4.4Q600.22 8.9 597.64 11.5 595.07 14.1 595.07 15.98 595.07 17.85 596.37 17.85L596.37 17.85Q597.37 17.85 598.67 16.82 599.97 15.8 601.17 14.1 602.37 12.4 602.99 11.18 603.62 9.95 604.72 7.58 605.82 5.2 606.22 4.4Z" opacity="1" transform="matrix(1,0,0,1,0,0)" fill="#000000" class="slogan-text-1" data-fill-palette-color="secondary" id="text-1"></path></svg></g></svg></g></svg></g></svg></g><g></g></svg></g></svg></g></svg></g><g><path d="M85.883 74.405A122.216 122.216 0 0 1 309.637 74.405L305.455 74.405A118.033 118.033 0 0 0 90.065 74.405L85.883 74.405M85.883 172.795A122.216 122.216 0 0 0 309.637 172.795L305.455 172.795A118.033 118.033 0 0 1 90.065 172.795L85.883 172.795" fill="#000000" stroke="transparent" data-fill-palette-color="tertiary"></path></g></svg></g><defs></defs></svg><rect width="395.52" height="247.2" fill="none" stroke="none" visibility="hidden"></rect></g></svg></g></svg>